<?xml version="1.0" encoding="UTF-8" standalone="no"?>
<svg
   width="144"
   height="20"
   role="img"
   aria-label="downloads: ClickPy"
   version="1.1"
   id="svg111"
   sodipodi:docname="clickpy_top10.svg"
   inkscape:version="1.2 (dc2aeda, 2022-05-15)"
   xmlns:inkscape="http://www.inkscape.org/namespaces/inkscape"
   xmlns:sodipodi="http://sodipodi.sourceforge.net/DTD/sodipodi-0.dtd"
   xmlns="http://www.w3.org/2000/svg"
   xmlns:svg="http://www.w3.org/2000/svg"
   xmlns:rdf="http://www.w3.org/1999/02/22-rdf-syntax-ns#"
   xmlns:cc="http://creativecommons.org/ns#"
   xmlns:dc="http://purl.org/dc/elements/1.1/">
  <defs
     id="defs115">
    <clipPath
       id="clip0_1595_490">
      <rect
         width="44.7075"
         height="64"
         fill="#ffffff"
         id="rect466"
         x="0"
         y="0" />
    </clipPath>
  </defs>
  <sodipodi:namedview
     id="namedview113"
     pagecolor="#ffffff"
     bordercolor="#000000"
     borderopacity="0.25"
     inkscape:showpageshadow="2"
     inkscape:pageopacity="0.0"
     inkscape:pagecheckerboard="0"
     inkscape:deskcolor="#d1d1d1"
     showgrid="true"
     inkscape:zoom="8.3958333"
     inkscape:cx="90.937966"
     inkscape:cy="0.53598015"
     inkscape:window-width="1512"
     inkscape:window-height="831"
     inkscape:window-x="0"
     inkscape:window-y="38"
     inkscape:window-maximized="1"
     inkscape:current-layer="svg111">
    <inkscape:grid
       type="xygrid"
       id="grid1161" />
  </sodipodi:namedview>
  <title
     id="title87">downloads: ClickPy</title>
  <linearGradient
     id="s"
     x2="0"
     y2="100%">
    <stop
       offset="0"
       stop-color="#bbb"
       stop-opacity=".1"
       id="stop89" />
    <stop
       offset="1"
       stop-opacity=".1"
       id="stop91" />
  </linearGradient>
  <clipPath
     id="r">
    <rect
       width="144"
       height="20"
       rx="3"
       fill="#fff"
       id="rect94" />
  </clipPath>
  <g
     clip-path="url(#r)"
     id="g103">
    <rect
       width="69"
       height="20"
       fill="#555"
       id="rect97" />
    <rect
       x="69"
       width="75"
       height="20"
       fill="#64b83a"
       id="rect99" />
    <rect
       width="144"
       height="20"
       fill="url(#s)"
       id="rect101" />
  </g>
  <g
     clip-path="url(#clip0_1595_490)"
     id="g464"
     transform="matrix(0.21375838,0,0,0.21375838,132.58022,3.3548391)">
    <path
       d="m 26.2334,63.6575 5.9446,-9.4162 c 0.1673,-0.2666 0.4862,-0.3947 0.7894,-0.3215 l 10.8331,2.5697 c 0.5804,0.1386 1.0745,-0.4392 0.8496,-0.9908 l -9.1966,-22.5419 -19.7186,8.0464 9.1966,22.5419 c 0.2248,0.5542 0.9829,0.6196 1.3019,0.1151 z"
       fill="#f41943"
       id="path446" />
    <path
       d="M 29.5219,43.6279 23.0937,59.0411 16.8066,43.6279 Z"
       fill="#ba0f38"
       id="path448" />
    <path
       d="m 28.9704,41.0006 -1.0718,2.6246 -3.9605,9.7064 -0.1647,0.4 -1.4247,3.4925 -2.5775,6.3184 c -0.2249,0.5542 -0.983,0.6196 -1.3019,0.115 l -5.9446,-9.4136 c -0.1673,-0.264 -0.4836,-0.3947 -0.7895,-0.3215 L 0.902113,56.4921 C 0.321769,56.6307 -0.172309,56.0529 0.0525096,55.4987 L 9.24914,32.9568 28.9678,41.0032 Z"
       fill="#f41943"
       id="path450" />
    <path
       d="m 38.1513,39.5654 c -0.8601,0.7659 -6.9433,6.0126 -15.7974,6.0126 -1.6653,0 -3.3331,-0.1726 -4.9617,-0.5202 C 13.3821,44.2055 9.61766,42.2894 6.55908,39.5654 l 2.69521,-6.6086 3.08731,1.26 0.2797,0.115 9.7326,3.9683 9.7325,-3.9683 0.2797,-0.115 3.0874,-1.26 2.6952,6.6086 z"
       fill="#ba0f38"
       id="path452" />
    <path
       d="m 22.3536,43.6252 c 12.0468,0 21.8126,-9.7658 21.8126,-21.8126 C 44.1662,9.76583 34.4004,0 22.3536,0 10.3068,0 0.541016,9.76583 0.541016,21.8126 c 0,12.0468 9.765784,21.8126 21.812584,21.8126 z"
       fill="#ebf2f2"
       id="path454" />
    <path
       d="m 22.3538,41.6881 c -10.9585,0 -19.87284,-8.9143 -19.87284,-19.8729 0,-10.9586 8.91434,-19.8755 19.87284,-19.8755 10.9586,0 19.8729,8.9143 19.8729,19.8729 0,10.9586 -8.9143,19.8729 -19.8729,19.8729 z"
       fill="#c3dbda"
       id="path456" />
    <path
       d="m 22.3536,40.4699 c 10.3041,0 18.6573,-8.3532 18.6573,-18.6573 0,-10.3042 -8.3532,-18.65733 -18.6573,-18.65733 -10.3042,0 -18.65731,8.35313 -18.65731,18.65733 0,10.3041 8.35311,18.6573 18.65731,18.6573 z"
       fill="#ebf2f2"
       id="path458" />
    <path
       d="M 31.7907,5.72238 5.59417,30.0106 C 4.37859,27.535 3.69629,24.7535 3.69629,21.8152 c 0,-2.1802 0.37644,-4.2716 1.06658,-6.2165 L 17.8651,3.70163 c 1.4378,-0.35552 2.9409,-0.54636 4.4885,-0.54636 3.4402,0 6.6661,0.93587 9.4371,2.56711 z"
       fill="#ffffff"
       id="path460" />
    <path
       d="M 39.7064,14.9636 14.2105,38.6008 C 11.6433,37.3513 9.403,35.5292 7.65674,33.2993 L 35.2048,8.30005 c 1.9476,1.85345 3.4978,4.12255 4.5016,6.66355 z"
       fill="#ffffff"
       id="path462" />
  </g>
  <g
     fill="#ffffff"
     text-anchor="middle"
     font-family="Verdana, Geneva, 'DejaVu Sans', sans-serif"
     text-rendering="geometricPrecision"
     font-size="110px"
     id="g109"
     transform="translate(0,-0.22091826)">
    <text
       aria-hidden="true"
       x="355"
       y="150"
       fill="#010101"
       fill-opacity="0.3"
       transform="scale(0.1)"
       textLength="590"
       id="text105"
       lengthAdjust="spacing">downloads</text>
    <text
       x="355"
       y="140"
       transform="scale(0.1)"
       fill="#ffffff"
       textLength="590"
       id="text107"
       lengthAdjust="spacing">downloads</text>
  </g>
  <text
     xml:space="preserve"
     style="font-size:10.17px;fill:#241c1c;stroke-width:0.924541"
     x="84.049957"
     y="12.943688"
     id="text325-1"><tspan
       sodipodi:role="line"
       id="tspan323-7"
       x="84.049957"
       y="12.943688"
       style="font-style:normal;font-variant:normal;font-weight:normal;font-stretch:normal;font-size:10.17px;font-family:Verdana, Geneva, 'DejaVu Sans', sans-serif;-inkscape-font-specification:'Verdana, Geneva, DejaVu Sans, sans-serif';fill:#241c1c;stroke-width:0.924541">TOP 10%</tspan></text>
  <g
     id="g486">
    <rect
       style="fill:#ffffff"
       id="rect1227"
       width="1.54839"
       height="13.697269"
       x="71.250626"
       y="3.3464725"
       ry="0.3573201" />
    <rect
       style="fill:#ffffff"
       id="rect1227-8"
       width="1.54839"
       height="13.697269"
       x="73.647652"
       y="3.3464725"
       ry="0.3573201" />
    <rect
       style="fill:#ffffff"
       id="rect1227-1"
       width="1.54839"
       height="13.697269"
       x="76.044678"
       y="3.3464725"
       ry="0.3573201" />
    <rect
       style="fill:#ffffff"
       id="rect1227-5"
       width="1.54839"
       height="13.697269"
       x="78.441696"
       y="3.3464725"
       ry="0.3573201" />
    <rect
       style="fill:#ffffff;stroke-width:0.475486"
       id="rect1227-3"
       width="1.54839"
       height="3.0967731"
       x="80.838722"
       y="8.6467209"
       ry="0.080785394" />
  </g>
  <metadata
     id="metadata968">
    <rdf:RDF>
      <cc:Work
         rdf:about="">
        <dc:title>downloads: ClickPy</dc:title>
      </cc:Work>
    </rdf:RDF>
  </metadata>
</svg>
